<?xml version="1.0" encoding="UTF-8"?>
<svg id="IDENTITE-PERSONA-FEMME" xmlns="http://www.w3.org/2000/svg" viewBox="0 0 200 280">
  <path id="FOND-PULL-FEMME" d="M151.9,214.55h-34.49v9.87c-5.14-.4-5.17,4.7-12.03,4.7l-5.38-1.61c-6.86,0-10.03,1.02-12.2-4.41v-9.87l-39.7,1.32c-5.51,0-10,5.01-10,11.16v49.28h123.8v-49.28c0-6.15-4.49-11.16-10-11.16Z" fill="#7c7a2a"/>
  <path id="FOND-CHAIRE-FEMME" d="M150,95.08c-.39,0-.76.08-1.13.19-3.23-21-10.18-32.94-21.53-38.57-5.7-2.83-19.79,14.89-37.17,22.07-17.39,7.18-36.53.21-39.03,16.51-.37-.11-.75-.19-1.13-.19-4.14,0-7.5,6.72-7.5,15s3.36,15,7.5,15c.39,0,.76-.08,1.13-.19,3.9,25.33,17.58,45.55,35.24,52.54v41.99c0,5.48,4.46,9.94,9.94,9.94h9.66c5.48,0,9.94-4.46,9.94-9.94v-42.98c16.55-7.78,29.23-27.33,32.96-51.55.37.11.75.19,1.13.19,4.14,0,7.5-6.72,7.5-15s-3.36-15-7.5-15Z" fill="#f9cfe3"/>
  <path id="TRACE-FEMME" d="M151.9,209.55h-33.49v-31.64c15.86-8.28,28.37-26.91,32.56-50.41,5.21-.8,9.03-8.02,9.03-17.43s-3.82-16.62-9.02-17.43c-3.46-20.13-10.65-32.3-22.53-38.2-4.36-2.16-9.88,2.13-17.52,8.06-6.08,4.72-13.64,10.6-21.72,13.93-5.99,2.47-12.42,3.2-18.09,3.84-9.89,1.12-19.27,2.18-21.99,12.34-5.26.72-9.13,7.98-9.13,17.44s3.82,16.63,9.03,17.43c4.39,24.61,17.9,43.89,34.84,51.52v30.53h-35.77c-8.28,0-15,7.24-15,16.16v54.28h133.8v-54.28c0-8.93-6.72-16.16-15-16.16ZM53.6,124.51l-.44-2.85-2.76.84c-.22.07-.34.08-.41.08-2.04,0-5-4.87-5-12.5s2.96-12.5,5-12.5c.06,0,.18.01.4.08l2.76.85.44-2.86c1.25-8.11,7.06-9.14,18.08-10.38,6-.68,12.79-1.45,19.44-4.19,8.71-3.6,16.56-9.7,22.88-14.61,4.25-3.3,10.67-8.3,12.23-7.53,10.73,5.33,17.14,16.99,20.17,36.72l.44,2.86,2.76-.85c.22-.07.34-.08.4-.08,2.04,0,5,4.87,5,12.5s-2.96,12.5-5,12.5c-.06,0-.19-.01-.41-.08l-2.76-.84-.44,2.85c-3.35,21.78-14.12,39.31-27.99,47.7-1.63.98-3.3,1.84-5,2.56-4.28,1.82-8.79,2.8-13.41,2.8-3.81,0-7.54-.67-11.13-1.92-1.7-.59-3.37-1.3-5-2.15-14.96-7.78-26.74-26.03-30.27-48.99ZM113.41,180.14v39.28c0,4.1-3.34,7.44-7.44,7.44h-9.66c-4.1,0-7.44-3.34-7.44-7.44v-38.51c3.6,1.09,7.33,1.67,11.13,1.67,4.61,0,9.1-.85,13.41-2.44ZM161.9,275H38.1v-49.28c0-6.15,4.49-11.16,10-11.16h35.77v4.87c0,6.86,5.58,12.44,12.44,12.44h9.66c6.86,0,12.44-5.58,12.44-12.44v-4.87h33.49c5.51,0,10,5.01,10,11.16v49.28Z" fill="#1d1d1b"/>
  <path id="FOND-CHEVEUX-FEMME" d="M102.2,27.81c-122.15,0-60.17,141.97-60.17,141.97h31.88c-11.45-9.83-19.86-25.93-22.78-44.9-.37.11-.75.19-1.13.19-4.14,0-7.5-6.72-7.5-15s3.36-15,7.5-15c.39,0,.76.08,1.13.19,2.51-16.3,21.65-9.33,39.03-16.51,17.39-7.18,31.47-24.9,37.17-22.07,11.36,5.64,18.3,17.58,21.53,38.57.37-.11.75-.19,1.13-.19,4.14,0,7.5,6.72,7.5,15s-3.36,15-7.5,15c-.39,0-.76-.08-1.13-.19-2.92,18.97-11.33,35.07-22.78,44.9h26.86S224.36,27.81,102.2,27.81Z" fill="#1d1d1b"/>
</svg>